<svg width="18" height="18" viewBox="0 0 18 18" fill="none" xmlns="http://www.w3.org/2000/svg">
<g clip-path="url(#clip0_428_156)">
<g clip-path="url(#clip1_428_156)">
<path d="M12.7499 1.49987C13.7436 1.50283 14.6958 1.8989 15.3984 2.60157C16.1011 3.30424 16.4972 4.25641 16.5001 5.25013V12.7499C16.4972 13.7436 16.1011 14.6958 15.3984 15.3984C14.6958 16.1011 13.7436 16.4972 12.7499 16.5001H5.25013C4.25641 16.4972 3.30424 16.1011 2.60157 15.3984C1.8989 14.6958 1.50283 13.7436 1.49987 12.7499V5.25013C1.50283 4.25641 1.8989 3.30424 2.60157 2.60157C3.30424 1.8989 4.25641 1.50283 5.25013 1.49987H12.7499ZM12.7499 0H5.25013C2.3625 0 0 2.3625 0 5.25013V12.7499C0 15.6375 2.3625 18 5.25013 18H12.7499C15.6375 18 18 15.6375 18 12.7499V5.25013C18 2.3625 15.6375 0 12.7499 0Z" fill="white"/>
<path d="M13.8749 5.25012C13.6524 5.25012 13.4349 5.18414 13.2499 5.06053C13.0648 4.93691 12.9207 4.76121 12.8355 4.55564C12.7504 4.35007 12.7281 4.12387 12.7715 3.90565C12.8149 3.68742 12.922 3.48696 13.0794 3.32963C13.2367 3.17229 13.4372 3.06515 13.6554 3.02174C13.8736 2.97833 14.0998 3.00061 14.3054 3.08576C14.511 3.17091 14.6867 3.3151 14.8103 3.50011C14.9339 3.68511 14.9999 3.90262 14.9999 4.12512C15.0002 4.27295 14.9713 4.41938 14.9149 4.55602C14.8585 4.69265 14.7756 4.8168 14.6711 4.92133C14.5665 5.02586 14.4424 5.10871 14.3058 5.16513C14.1691 5.22156 14.0227 5.25044 13.8749 5.25012ZM9 5.99985C9.59337 5.99985 10.1734 6.17581 10.6668 6.50547C11.1602 6.83513 11.5447 7.30368 11.7718 7.85189C11.9988 8.40009 12.0583 9.00332 11.9425 9.58529C11.8267 10.1673 11.541 10.7018 11.1214 11.1214C10.7018 11.541 10.1673 11.8267 9.5853 11.9425C9.00333 12.0582 8.4001 11.9988 7.8519 11.7718C7.3037 11.5447 6.83514 11.1601 6.50548 10.6668C6.17582 10.1734 5.99987 9.59336 5.99987 8.99999C6.00072 8.20456 6.31708 7.44196 6.87953 6.87951C7.44198 6.31706 8.20458 6.00071 9 5.99985ZM9 4.49999C8.10999 4.49999 7.23996 4.76391 6.49994 5.25838C5.75991 5.75284 5.18314 6.45565 4.84254 7.27791C4.50195 8.10018 4.41283 9.00498 4.58647 9.8779C4.7601 10.7508 5.18869 11.5526 5.81802 12.182C6.44736 12.8113 7.24918 13.2399 8.1221 13.4135C8.99501 13.5872 9.89981 13.498 10.7221 13.1574C11.5443 12.8169 12.2471 12.2401 12.7416 11.5001C13.2361 10.76 13.5 9.89 13.5 8.99999C13.5 7.80651 13.0259 6.66192 12.182 5.81801C11.3381 4.97409 10.1935 4.49999 9 4.49999Z" fill="white"/>
</g>
</g>
<defs>
<clipPath id="clip0_428_156">
<rect width="18" height="18" fill="white"/>
</clipPath>
<clipPath id="clip1_428_156">
<rect width="18" height="18" fill="white"/>
</clipPath>
</defs>
</svg>
