<svg width="20" height="18" viewBox="0 0 20 18" fill="none" xmlns="http://www.w3.org/2000/svg">
<g clip-path="url(#clip0_428_145)">
<g clip-path="url(#clip1_428_145)">
<path d="M17.6235 15.8071C15.586 13.0916 13.5488 10.3754 11.5119 7.65855C11.2142 7.97497 10.9183 8.28922 10.6221 8.60533C12.6133 11.2624 14.6058 13.9189 16.5996 16.5747C16.636 16.6239 16.6727 16.6715 16.7091 16.7209H14.137L9.24501 10.0745C8.94695 10.3919 8.6495 10.7086 8.35299 11.0247C9.52804 12.6183 10.7018 14.2125 11.8744 15.8071C12.4137 16.5379 12.9522 17.2688 13.4898 18H19.2682C18.7181 17.269 18.1699 16.5381 17.6235 15.8071ZM2.76908 1.27907H5.12841L7.11655 3.92899C8.01759 5.12976 8.91853 6.33094 9.81937 7.53254C10.1153 7.21643 10.4105 6.90218 10.7073 6.58607C9.06041 4.39134 7.41368 2.19598 5.76716 0H0.237701C1.79461 2.11571 3.35152 4.23141 4.90844 6.34712C5.79309 7.54581 6.6763 8.74461 7.55805 9.94351C7.85425 9.6274 8.15096 9.31129 8.4482 8.99518L2.76908 1.27907Z" fill="white"/>
<path d="M9.24502 10.0745C8.94695 10.3919 8.64951 10.7086 8.353 11.0247C6.85645 12.6184 5.35979 14.2125 3.86303 15.8072C3.17854 16.5379 2.4927 17.2689 1.80551 18H0C0.684493 17.2691 1.37034 16.5381 2.05753 15.8072C3.00959 14.7908 3.96239 13.7744 4.91591 12.7581C5.79642 11.8186 6.67713 10.88 7.55805 9.94199C7.85425 9.62588 8.15097 9.30976 8.44821 8.99365L9.24502 10.0745Z" fill="white"/>
<path d="M18.6991 0L11.5119 7.65855C11.2142 7.97497 10.9183 8.28922 10.6221 8.60533C10.3555 8.24877 10.0876 7.89117 9.81812 7.53254C10.114 7.21643 10.4093 6.90218 10.7061 6.58607C12.7662 4.39134 14.8259 2.19598 16.8852 0H18.6991Z" fill="white"/>
</g>
</g>
<defs>
<clipPath id="clip0_428_145">
<rect width="19.27" height="18" fill="white"/>
</clipPath>
<clipPath id="clip1_428_145">
<rect width="19.2682" height="18" fill="white"/>
</clipPath>
</defs>
</svg>
