<svg width="18" height="18" viewBox="0 0 18 18" fill="none" xmlns="http://www.w3.org/2000/svg">
<path d="M4.43725 16.9997H1V6.31251H4.43725V16.9997ZM2.83752 4.68761H2.81289C1.71284 4.68761 1.00054 3.86873 1.00054 2.84366C1.00054 1.79984 1.73158 1.00024 2.85627 1.00024C3.98095 1.00024 4.66915 1.79395 4.69379 2.84366C4.69326 3.86873 3.98095 4.68761 2.83752 4.68761ZM16.9995 16.9997H13.5622V11.1562C13.5622 9.75619 13.062 8.79967 11.8184 8.79967C10.8683 8.79967 10.306 9.44235 10.0559 10.0684C9.96214 10.2934 9.93697 10.5997 9.93697 10.9125V16.9997H6.49972V6.31251H9.93697V7.79977C10.4372 7.08747 11.2186 6.0624 13.0368 6.0624C15.2932 6.0624 17 7.54967 17 10.7561L16.9995 16.9997Z" fill="white"/>
</svg>
